<?xml version="1.0" encoding="utf-8"?>
<!-- Generator: Adobe Illustrator 16.0.3, SVG Export Plug-In . SVG Version: 6.00 Build 0)  -->
<!DOCTYPE svg PUBLIC "-//W3C//DTD SVG 1.1//EN" "http://www.w3.org/Graphics/SVG/1.1/DTD/svg11.dtd">
<svg version="1.1" id="Capa_1" xmlns="http://www.w3.org/2000/svg" xmlns:xlink="http://www.w3.org/1999/xlink" x="0px" y="0px"
	 width="1000px" height="1000px" viewBox="0 0 1000 1000" enable-background="new 0 0 1000 1000" xml:space="preserve">
<linearGradient id="SVGID_1_" gradientUnits="userSpaceOnUse" x1="133.5352" y1="125.21" x2="865.4645" y2="547.7896">
	<stop  offset="0.0049" style="stop-color:#CCFCA6"/>
	<stop  offset="0.7389" style="stop-color:#AFFC71"/>
</linearGradient>
<path fill="url(#SVGID_1_)" stroke="#599B32" stroke-width="10" stroke-miterlimit="10" d="M966,336.5
	c0,76.491-62.009,138.5-138.5,138.5h-656C95.009,475,33,412.991,33,336.5l0,0C33,260.009,95.009,198,171.5,198h656
	C903.991,198,966,260.009,966,336.5L966,336.5z"/>
<linearGradient id="SVGID_2_" gradientUnits="userSpaceOnUse" x1="38.5645" y1="332.0132" x2="316.5918" y2="332.0132">
	<stop  offset="0.0049" style="stop-color:#CCFCA6"/>
	<stop  offset="0.7389" style="stop-color:#AFFC71"/>
</linearGradient>
<circle fill="url(#SVGID_2_)" stroke="#599B32" stroke-width="10" stroke-miterlimit="10" cx="177.578" cy="332.014" r="139.014"/>
<path fill="#C9314C" stroke="#72031B" stroke-width="10" stroke-miterlimit="10" d="M224.93,271.184
	c-22.964,0-42.178,17.572-47.429,41.229c-0.073,0.03-0.14,0.05-0.217,0.08c-0.076-0.03-0.146-0.05-0.224-0.08
	c-5.252-23.658-24.465-41.229-47.428-41.229c-27.005,0-48.898,24.262-48.898,54.192c0,29.93,23.593,54.996,39.117,66.416
	c13.259,9.754,57.209,32.595,57.209,32.595c0.073-0.044,0.147-0.098,0.221-0.145c0.073,0.047,0.146,0.101,0.22,0.145
	c0,0,43.95-22.841,57.209-32.595c15.524-11.42,39.116-36.486,39.116-66.416C273.826,295.446,251.934,271.184,224.93,271.184z"/>
</svg>
